<mxfile host="app.diagrams.net" modified="2021-10-06T05:31:42.494Z" agent="5.0 (Windows NT 10.0; Win64; x64) AppleWebKit/537.36 (KHTML, like Gecko) Chrome/94.0.4606.71 Safari/537.36" etag="8iJ-EVzvT9fgE1rAvbq0" version="15.4.1" type="github">
  <diagram id="R2lEEEUBdFMjLlhIrx00" name="Page-1">
    <mxGraphModel dx="862" dy="486" grid="1" gridSize="10" guides="1" tooltips="1" connect="1" arrows="1" fold="1" page="1" pageScale="1" pageWidth="850" pageHeight="1100" math="0" shadow="0" extFonts="Permanent Marker^https://fonts.googleapis.com/css?family=Permanent+Marker">
      <root>
        <mxCell id="0" />
        <mxCell id="1" parent="0" />
        <mxCell id="quwsqr8XzOCsmxCKkttg-9" style="rounded=0;orthogonalLoop=1;jettySize=auto;html=1;exitX=0.5;exitY=0;exitDx=0;exitDy=0;entryX=0.5;entryY=1;entryDx=0;entryDy=0;endArrow=none;endFill=0;" edge="1" parent="1" source="quwsqr8XzOCsmxCKkttg-1" target="quwsqr8XzOCsmxCKkttg-4">
          <mxGeometry relative="1" as="geometry" />
        </mxCell>
        <mxCell id="quwsqr8XzOCsmxCKkttg-11" style="rounded=0;orthogonalLoop=1;jettySize=auto;html=1;exitX=0;exitY=0;exitDx=0;exitDy=0;entryX=1;entryY=1;entryDx=0;entryDy=0;endArrow=none;endFill=0;" edge="1" parent="1" source="quwsqr8XzOCsmxCKkttg-1" target="quwsqr8XzOCsmxCKkttg-3">
          <mxGeometry relative="1" as="geometry" />
        </mxCell>
        <mxCell id="quwsqr8XzOCsmxCKkttg-12" style="rounded=0;orthogonalLoop=1;jettySize=auto;html=1;exitX=0;exitY=0.5;exitDx=0;exitDy=0;endArrow=none;endFill=0;" edge="1" parent="1" source="quwsqr8XzOCsmxCKkttg-1" target="quwsqr8XzOCsmxCKkttg-5">
          <mxGeometry relative="1" as="geometry" />
        </mxCell>
        <mxCell id="quwsqr8XzOCsmxCKkttg-13" style="rounded=0;orthogonalLoop=1;jettySize=auto;html=1;exitX=0;exitY=1;exitDx=0;exitDy=0;entryX=1;entryY=0;entryDx=0;entryDy=0;endArrow=none;endFill=0;" edge="1" parent="1" source="quwsqr8XzOCsmxCKkttg-1" target="quwsqr8XzOCsmxCKkttg-6">
          <mxGeometry relative="1" as="geometry" />
        </mxCell>
        <mxCell id="quwsqr8XzOCsmxCKkttg-16" style="edgeStyle=none;rounded=0;orthogonalLoop=1;jettySize=auto;html=1;exitX=1;exitY=0.5;exitDx=0;exitDy=0;entryX=0;entryY=0.5;entryDx=0;entryDy=0;endArrow=none;endFill=0;" edge="1" parent="1" source="quwsqr8XzOCsmxCKkttg-1" target="quwsqr8XzOCsmxCKkttg-15">
          <mxGeometry relative="1" as="geometry" />
        </mxCell>
        <mxCell id="quwsqr8XzOCsmxCKkttg-1" value="Teacher" style="rounded=0;whiteSpace=wrap;html=1;" vertex="1" parent="1">
          <mxGeometry x="200" y="200" width="120" height="60" as="geometry" />
        </mxCell>
        <mxCell id="quwsqr8XzOCsmxCKkttg-3" value="NAME" style="ellipse;whiteSpace=wrap;html=1;" vertex="1" parent="1">
          <mxGeometry x="60" y="120" width="120" height="40" as="geometry" />
        </mxCell>
        <mxCell id="quwsqr8XzOCsmxCKkttg-4" value="Subject" style="ellipse;whiteSpace=wrap;html=1;" vertex="1" parent="1">
          <mxGeometry x="190" y="70" width="120" height="50" as="geometry" />
        </mxCell>
        <mxCell id="quwsqr8XzOCsmxCKkttg-5" value="USERNAME" style="ellipse;whiteSpace=wrap;html=1;" vertex="1" parent="1">
          <mxGeometry x="30" y="200" width="120" height="40" as="geometry" />
        </mxCell>
        <mxCell id="quwsqr8XzOCsmxCKkttg-6" value="PASSWORD" style="ellipse;whiteSpace=wrap;html=1;" vertex="1" parent="1">
          <mxGeometry x="40" y="290" width="120" height="50" as="geometry" />
        </mxCell>
        <mxCell id="quwsqr8XzOCsmxCKkttg-17" style="edgeStyle=none;rounded=0;orthogonalLoop=1;jettySize=auto;html=1;exitX=1;exitY=0.5;exitDx=0;exitDy=0;endArrow=none;endFill=0;entryX=0.045;entryY=0.4;entryDx=0;entryDy=0;entryPerimeter=0;" edge="1" parent="1" source="quwsqr8XzOCsmxCKkttg-15" target="quwsqr8XzOCsmxCKkttg-18">
          <mxGeometry relative="1" as="geometry">
            <mxPoint x="650" y="230" as="targetPoint" />
          </mxGeometry>
        </mxCell>
        <mxCell id="quwsqr8XzOCsmxCKkttg-15" value="DIVISON" style="shape=rhombus;perimeter=rhombusPerimeter;whiteSpace=wrap;html=1;align=center;" vertex="1" parent="1">
          <mxGeometry x="400" y="200" width="120" height="60" as="geometry" />
        </mxCell>
        <mxCell id="quwsqr8XzOCsmxCKkttg-26" style="edgeStyle=none;rounded=0;orthogonalLoop=1;jettySize=auto;html=1;exitX=0;exitY=0;exitDx=0;exitDy=0;endArrow=none;endFill=0;" edge="1" parent="1" source="quwsqr8XzOCsmxCKkttg-18" target="quwsqr8XzOCsmxCKkttg-21">
          <mxGeometry relative="1" as="geometry" />
        </mxCell>
        <mxCell id="quwsqr8XzOCsmxCKkttg-27" style="edgeStyle=none;rounded=0;orthogonalLoop=1;jettySize=auto;html=1;exitX=0.5;exitY=0;exitDx=0;exitDy=0;endArrow=none;endFill=0;" edge="1" parent="1" source="quwsqr8XzOCsmxCKkttg-18" target="quwsqr8XzOCsmxCKkttg-20">
          <mxGeometry relative="1" as="geometry" />
        </mxCell>
        <mxCell id="quwsqr8XzOCsmxCKkttg-31" style="edgeStyle=none;rounded=0;orthogonalLoop=1;jettySize=auto;html=1;exitX=0;exitY=1;exitDx=0;exitDy=0;entryX=0.617;entryY=0.02;entryDx=0;entryDy=0;entryPerimeter=0;endArrow=none;endFill=0;" edge="1" parent="1" source="quwsqr8XzOCsmxCKkttg-18" target="quwsqr8XzOCsmxCKkttg-30">
          <mxGeometry relative="1" as="geometry" />
        </mxCell>
        <mxCell id="quwsqr8XzOCsmxCKkttg-32" style="edgeStyle=none;rounded=0;orthogonalLoop=1;jettySize=auto;html=1;exitX=1;exitY=1;exitDx=0;exitDy=0;entryX=0.5;entryY=0;entryDx=0;entryDy=0;endArrow=none;endFill=0;" edge="1" parent="1" source="quwsqr8XzOCsmxCKkttg-18" target="quwsqr8XzOCsmxCKkttg-28">
          <mxGeometry relative="1" as="geometry" />
        </mxCell>
        <mxCell id="quwsqr8XzOCsmxCKkttg-18" value="STUDENT" style="rounded=0;whiteSpace=wrap;html=1;" vertex="1" parent="1">
          <mxGeometry x="655" y="210" width="110" height="50" as="geometry" />
        </mxCell>
        <mxCell id="quwsqr8XzOCsmxCKkttg-20" value="ID" style="ellipse;whiteSpace=wrap;html=1;" vertex="1" parent="1">
          <mxGeometry x="690" y="80" width="120" height="50" as="geometry" />
        </mxCell>
        <mxCell id="quwsqr8XzOCsmxCKkttg-21" value="NAME" style="ellipse;whiteSpace=wrap;html=1;" vertex="1" parent="1">
          <mxGeometry x="540" y="100" width="120" height="35" as="geometry" />
        </mxCell>
        <mxCell id="quwsqr8XzOCsmxCKkttg-24" style="edgeStyle=none;rounded=0;orthogonalLoop=1;jettySize=auto;html=1;exitX=0.5;exitY=0;exitDx=0;exitDy=0;entryX=0.5;entryY=1;entryDx=0;entryDy=0;endArrow=none;endFill=0;" edge="1" parent="1" source="quwsqr8XzOCsmxCKkttg-22" target="quwsqr8XzOCsmxCKkttg-23">
          <mxGeometry relative="1" as="geometry" />
        </mxCell>
        <mxCell id="quwsqr8XzOCsmxCKkttg-22" value="ADMIN" style="rounded=0;whiteSpace=wrap;html=1;" vertex="1" parent="1">
          <mxGeometry x="650" y="440" width="120" height="60" as="geometry" />
        </mxCell>
        <mxCell id="quwsqr8XzOCsmxCKkttg-25" value="" style="edgeStyle=none;rounded=0;orthogonalLoop=1;jettySize=auto;html=1;endArrow=none;endFill=0;" edge="1" parent="1" source="quwsqr8XzOCsmxCKkttg-23" target="quwsqr8XzOCsmxCKkttg-18">
          <mxGeometry relative="1" as="geometry" />
        </mxCell>
        <mxCell id="quwsqr8XzOCsmxCKkttg-23" value="ADDS" style="shape=rhombus;perimeter=rhombusPerimeter;whiteSpace=wrap;html=1;align=center;" vertex="1" parent="1">
          <mxGeometry x="650" y="350" width="120" height="60" as="geometry" />
        </mxCell>
        <mxCell id="quwsqr8XzOCsmxCKkttg-28" value="PASSWORD" style="ellipse;whiteSpace=wrap;html=1;" vertex="1" parent="1">
          <mxGeometry x="730" y="290" width="120" height="50" as="geometry" />
        </mxCell>
        <mxCell id="quwsqr8XzOCsmxCKkttg-30" value="USERNAME" style="ellipse;whiteSpace=wrap;html=1;" vertex="1" parent="1">
          <mxGeometry x="530" y="280" width="120" height="50" as="geometry" />
        </mxCell>
      </root>
    </mxGraphModel>
  </diagram>
</mxfile>
